<svg width="357" height="71" viewBox="0 0 357 71" fill="none" xmlns="http://www.w3.org/2000/svg">
<path d="M152.656 1.14001C152.042 1.46667 150.674 3.14667 149.683 4.92001C147.513 8.65334 146.144 9.58667 141.851 10.3333C136.472 11.2667 135.104 12.2 131.66 17.52C130.575 19.1533 128.97 20.7867 127.744 21.58C125.809 22.7933 118.779 25.2667 117.269 25.2667C116.939 25.2667 115.995 25.4533 115.193 25.6867C114.391 25.92 112.598 26.34 111.277 26.62C106.323 27.6467 103.823 28.2067 102.643 28.5333C101.982 28.72 100.52 29.1867 99.3403 29.5133C96.6981 30.26 94.0559 31.8467 93.1123 33.2467C91.6497 35.3467 90.1398 36.7933 87.3089 38.6133C84.0062 40.8067 82.638 41.3667 78.8163 42.0667C72.777 43.1867 71.1256 43.6533 66.4075 45.8933C58.9056 49.3933 57.8204 49.6733 52.6305 49.3933C50.177 49.2533 46.025 48.9267 43.43 48.6C37.3908 47.9 31.0213 48.32 27.6242 49.6267C21.6793 51.9133 10.7332 60.3133 9.17617 63.72C8.13817 66.0533 6.48682 67.64 3.08974 69.5533L0.494751 71H2.90101C5.16573 71 5.44882 70.86 7.19454 68.9933C8.18536 67.92 9.88389 65.8667 10.9691 64.4667C13.4225 61.1533 14.1774 60.5467 17.5273 58.9133C19.0843 58.1667 21.7265 56.3933 23.3778 54.9933C28.0488 51.0733 29.5115 50.42 34.1824 50.14C36.4 50 40.5991 50.14 43.43 50.4667C46.3081 50.7933 50.5545 51.12 52.9607 51.26C57.8676 51.54 59.8964 50.98 67.1624 47.4333C71.9749 45.1467 73.5791 44.6333 78.5803 43.9333C84.2421 43.14 89.1962 40.2933 94.0559 35.02C97.2643 31.52 99.7649 30.5867 112.315 28.0667C117.788 26.9933 119.251 26.62 122.695 25.5467C128.357 23.7267 129.867 22.7 133.075 18.36C136.331 13.88 137.557 13.0867 142.323 11.92C147.985 10.6133 149.211 9.82 150.768 6.36667C151.759 4.22 152.514 3.19334 153.599 2.63334C155.392 1.70001 156.336 1.98001 158.553 3.98667C159.45 4.82667 161.148 5.80667 162.233 6.13334C163.319 6.41334 164.687 6.88001 165.206 7.06667C165.772 7.30001 167.706 7.58 169.452 7.76667L172.708 8.09334L175.727 5.94667C178.7 3.89334 178.888 3.8 182.191 3.8C186.485 3.8 188.136 4.50001 191.203 7.67334C192.949 9.44667 194.977 10.8467 198.233 12.48C202.526 14.6733 204.555 16.26 204.555 17.5667C204.555 18.7333 209.085 22.6533 214.416 26.1067C220.833 30.26 222.956 32.08 225.315 35.5333C227.674 38.94 229.75 40.6667 234.752 43.1867C240.508 46.1267 246.453 47.9933 252.728 48.8333C259.852 49.7667 262.353 49.72 265.703 48.6C267.213 48.0867 268.911 47.6667 269.43 47.6667C270.562 47.6667 272.874 49.9533 275.705 53.78C279.716 59.24 284.858 61.9467 293.964 63.3467C301.183 64.42 305.288 64.14 314.724 61.9C318.971 60.8733 339.07 60.64 343.505 61.5733C351.809 63.3467 351.29 63.16 354.687 64.6533C356.858 65.5867 356.952 65.5867 356.952 64.4667C356.952 63.44 355.159 62.5067 351.054 61.4333C343.741 59.52 340.297 59.1933 329.823 59.1467C319.254 59.1467 319.159 59.1467 308.355 61.48C305.666 62.04 303.354 62.18 298.683 61.9933C286.651 61.48 281.32 59.0067 276.224 51.5867C272.497 46.1267 271.553 45.66 266.127 46.9667C260.182 48.4133 250.699 47.5733 243.763 45.0533C237.441 42.7667 230.93 39.5 228.948 37.6333C228.052 36.7933 226.4 34.8333 225.362 33.2467C223.192 30.0733 220.503 27.8333 215.69 25.0333C212.199 23.0267 205.971 17.66 205.971 16.6333C205.971 15.2333 203.376 13.18 198.516 10.66C194.458 8.56 192.901 7.48667 191.25 5.52667C188.797 2.77334 186.673 1.93334 181.861 1.93334C178.888 1.93334 177.803 2.30667 175.633 4.08C172.944 6.32 171.292 6.78667 168.32 6.18001C164.262 5.34001 160.299 3.84667 159.167 2.72667C156.902 0.533336 154.873 0.0200071 152.656 1.14001Z" fill="#5D4A26"/>
</svg>
