<svg width="12" height="12" viewBox="0 0 12 12" fill="none" xmlns="http://www.w3.org/2000/svg">
<g clip-path="url(#clip0_37_72)">
<path d="M5.20328 0.0767998C3.59723 0.388832 2.32299 1.70514 2.05558 3.32268C1.89644 4.28906 2.08207 5.24126 2.56424 6.04787C2.61932 6.13993 2.66265 6.21219 2.76088 6.376L2.78355 6.41381C3.76216 8.04543 4.1893 8.80204 4.63687 9.76092L5.54686 11.7114C5.72638 12.0962 6.27347 12.0962 6.45308 11.7115L7.27259 9.95595C7.72464 8.98662 8.15298 8.21894 9.12866 6.56789L9.15355 6.52577C9.29843 6.28063 9.36776 6.16313 9.45059 6.02227C9.80851 5.41421 10.0001 4.72051 10.0001 3.99979C10.0001 1.48928 7.71979 -0.41123 5.20328 0.0767998ZM8.58869 5.51516C8.50624 5.65542 8.43714 5.77244 8.29265 6.01697L8.26776 6.05909C7.27571 7.73783 6.83655 8.52488 6.36638 9.53308L6.00016 10.3176L5.54311 9.338C5.07611 8.33749 4.63739 7.5604 3.64117 5.89941L3.61851 5.8616C3.52037 5.69798 3.47725 5.62603 3.4225 5.53455C3.06089 4.92965 2.9219 4.21657 3.04228 3.48546C3.2416 2.27973 4.19912 1.29059 5.39386 1.05846C7.29052 0.690646 9.0001 2.11543 9.0001 3.99972C9.0001 4.54091 8.85683 5.05964 8.58869 5.51516Z" fill="#CEB588"/>
<path d="M6.00001 2.49973C5.17136 2.49973 4.49997 3.17111 4.49997 3.99977C4.49997 4.82843 5.17136 5.49981 6.00001 5.49981C6.82867 5.49981 7.50006 4.82843 7.50006 3.99977C7.50006 3.17111 6.82867 2.49973 6.00001 2.49973ZM6.00001 4.49978C5.72365 4.49978 5.50001 4.27613 5.50001 3.99977C5.50001 3.72341 5.72365 3.49976 6.00001 3.49976C6.27637 3.49976 6.50002 3.72341 6.50002 3.99977C6.50002 4.27613 6.27637 4.49978 6.00001 4.49978Z" fill="#CEB588"/>
</g>
<defs>
<clipPath id="clip0_37_72">
<rect width="12" height="12" fill="white"/>
</clipPath>
</defs>
</svg>
