<svg width="10" height="10" viewBox="0 0 10 10" fill="none" xmlns="http://www.w3.org/2000/svg">
<path d="M6.68977 6.3207L6.91752 6.09425L6.38867 5.5624L6.16097 5.78885L6.68977 6.3207ZM7.68232 5.9994L8.63757 6.5187L8.99577 5.8598L8.04052 5.3405L7.68232 5.9994ZM8.82147 7.5508L8.11117 8.25705L8.63997 8.7889L9.35027 8.08265L8.82147 7.5508ZM7.67837 8.48445C6.95342 8.552 5.07782 8.4918 3.04711 6.4726L2.51829 7.00445C4.73432 9.2079 6.84347 9.3155 7.74797 9.2312L7.67837 8.48445ZM3.04711 6.4726C1.11142 4.5479 0.790779 2.92908 0.750864 2.22678L0.00207437 2.26933C0.0523044 3.15325 0.449339 4.94725 2.51829 7.00445L3.04711 6.4726ZM3.73477 3.38246L3.87817 3.23986L3.34937 2.70803L3.20597 2.85062L3.73477 3.38246ZM3.99232 1.42226L3.36185 0.580057L2.76145 1.02953L3.39192 1.87173L3.99232 1.42226ZM1.24134 0.396747L0.456539 1.17709L0.985359 1.70893L1.77016 0.928586L1.24134 0.396747ZM3.47037 3.11654C3.20597 2.85062 3.20525 2.85133 3.20525 2.85133L3.20452 2.85206L3.20303 2.85357L3.19988 2.8568C3.19772 2.85905 3.19543 2.86148 3.19302 2.8641C3.18819 2.86933 3.1829 2.87532 3.17723 2.88209C3.16589 2.89561 3.15305 2.91227 3.13955 2.93219C3.11248 2.97214 3.08299 3.02495 3.05797 3.09137C3.0069 3.2269 2.97953 3.40555 3.01385 3.62678C3.08097 4.05942 3.37892 4.6309 4.14217 5.3898L4.67097 4.85795C3.95672 4.14775 3.78657 3.71555 3.75497 3.5118C3.73992 3.41483 3.75552 3.36711 3.75982 3.35581C3.76242 3.34882 3.76367 3.3481 3.76047 3.35288C3.75887 3.35521 3.75622 3.35887 3.75207 3.36379C3.75002 3.36626 3.74757 3.36905 3.74472 3.37216C3.74327 3.37371 3.74177 3.37535 3.74007 3.37706L3.73752 3.3797L3.73617 3.38106C3.73617 3.38106 3.73477 3.38246 3.47037 3.11654ZM4.14217 5.3898C4.90567 6.14895 5.47982 6.4444 5.91317 6.5109C6.13462 6.54485 6.31317 6.51775 6.44862 6.4673C6.51502 6.44255 6.56792 6.4134 6.60792 6.3866C6.62792 6.3732 6.64462 6.36045 6.65817 6.3492C6.66497 6.3436 6.67097 6.33835 6.67622 6.33355C6.67887 6.33115 6.68132 6.3289 6.68357 6.32675L6.68682 6.3236L6.68832 6.3221L6.68977 6.3207C6.68977 6.3207 6.68977 6.3207 6.42537 6.05475C6.16097 5.78885 6.16097 5.78885 6.16097 5.78885L6.16237 5.78745L6.16372 5.7861L6.16637 5.78355C6.16812 5.7819 6.16977 5.7804 6.17132 5.77895C6.17442 5.77615 6.17722 5.7737 6.17972 5.7717C6.18462 5.7676 6.18827 5.765 6.19052 5.76345C6.19517 5.76035 6.19422 5.76175 6.18682 5.7645C6.17457 5.76905 6.12552 5.7847 6.02692 5.76955C5.82027 5.7379 5.38502 5.5679 4.67097 4.85795L4.14217 5.3898ZM3.36185 0.580057C2.85219 -0.100738 1.85 -0.208463 1.24134 0.396747L1.77016 0.928586C2.036 0.664251 2.50814 0.691157 2.76145 1.02953L3.36185 0.580057ZM0.750864 2.22678C0.741029 2.05372 0.820399 1.87295 0.985359 1.70893L0.456539 1.17709C0.187879 1.44423 -0.0233306 1.82238 0.00207437 2.26933L0.750864 2.22678ZM8.11117 8.25705C7.97377 8.3937 7.82647 8.47065 7.67837 8.48445L7.74797 9.2312C8.11527 9.19695 8.41622 9.0114 8.63997 8.7889L8.11117 8.25705ZM3.87817 3.23986C4.37042 2.7504 4.40702 1.9762 3.99232 1.42226L3.39192 1.87173C3.59367 2.14122 3.56367 2.49494 3.34937 2.70803L3.87817 3.23986ZM8.63757 6.5187C9.04647 6.741 9.11017 7.2637 8.82147 7.5508L9.35027 8.08265C10.0204 7.4163 9.81377 6.30445 8.99577 5.8598L8.63757 6.5187ZM6.91752 6.09425C7.10952 5.90335 7.41857 5.85605 7.68232 5.9994L8.04052 5.3405C7.49872 5.04595 6.82632 5.1273 6.38867 5.5624L6.91752 6.09425Z" fill="#CEB588"/>
</svg>
