<svg width="15" height="15" viewBox="0 0 15 15" fill="none" xmlns="http://www.w3.org/2000/svg">
<path d="M7.5 0C3.35786 0 0 3.35786 0 7.5C0 11.6421 3.35786 15 7.5 15C11.6421 15 15 11.6421 15 7.5C15 3.35786 11.6421 0 7.5 0ZM12.2542 4.27734H10.887C10.7298 3.61778 10.5259 3.01134 10.2838 2.47518C10.7463 2.73229 11.1759 3.05517 11.5603 3.43966C11.8202 3.69952 12.0518 3.9801 12.2542 4.27734ZM13.2422 7.5C13.2422 8.00121 13.178 8.49249 13.0543 8.96484H11.1783C11.2252 8.49105 11.25 8.00136 11.25 7.5C11.25 6.99864 11.2252 6.50895 11.1783 6.03516H13.0543C13.178 6.50751 13.2422 6.99879 13.2422 7.5ZM7.5 13.2422C7.34766 13.2422 6.88336 12.9427 6.42059 12.0172C6.2289 11.6338 6.06439 11.1971 5.9298 10.7227H9.07017C8.93558 11.197 8.7711 11.6338 8.57938 12.0172C8.11664 12.9427 7.65234 13.2422 7.5 13.2422ZM5.59022 8.96484C5.53611 8.48886 5.50781 7.9972 5.50781 7.5C5.50781 7.0028 5.53611 6.51114 5.59022 6.03516H9.40978C9.46389 6.51114 9.49219 7.0028 9.49219 7.5C9.49219 7.9972 9.46389 8.48886 9.40978 8.96484H5.59022ZM1.75781 7.5C1.75781 6.99879 1.822 6.50751 1.94572 6.03516H3.82172C3.77481 6.50895 3.75 6.99864 3.75 7.5C3.75 8.00136 3.77481 8.49105 3.82172 8.96484H1.94572C1.822 8.49249 1.75781 8.00121 1.75781 7.5ZM7.5 1.75781C7.65234 1.75781 8.11664 2.05726 8.57941 2.9828C8.7711 3.36621 8.93561 3.80294 9.0702 4.27734H5.9298C6.06439 3.80297 6.22887 3.36621 6.42059 2.9828C6.88336 2.05726 7.34766 1.75781 7.5 1.75781ZM4.71618 2.47518C4.47407 3.01134 4.27022 3.61775 4.11305 4.27734H2.74585C2.94826 3.9801 3.17979 3.69952 3.43966 3.43966C3.82415 3.05517 4.2537 2.73229 4.71618 2.47518ZM2.74585 10.7227H4.11305C4.27022 11.3822 4.4741 11.9887 4.71618 12.5248C4.2537 12.2677 3.82412 11.9448 3.43966 11.5603C3.17979 11.3005 2.94823 11.0199 2.74585 10.7227ZM10.2838 12.5248C10.5259 11.9887 10.7298 11.3822 10.887 10.7227H12.2542C12.0517 11.0199 11.8202 11.3005 11.5603 11.5603C11.1758 11.9448 10.7463 12.2677 10.2838 12.5248Z" fill="#162D35"/>
</svg>
