<svg width="136" height="12" viewBox="0 0 136 12" fill="none" xmlns="http://www.w3.org/2000/svg">
<path d="M61.9343 0.488375C61.0137 0.94884 61.0002 0.962793 61.5552 0.879072C62.029 0.823258 62.1373 0.851166 62.2592 1.08838C62.4487 1.45117 62.4623 10.2977 62.2727 10.6047C62.205 10.7163 61.9478 10.8837 61.7041 10.9814C61.3116 11.1209 61.4334 11.1349 62.7465 11.1349C64.0868 11.1349 64.1951 11.1209 63.7754 10.9674C63.5182 10.8698 63.261 10.6744 63.2068 10.5209C63.1527 10.3814 63.0985 7.95349 63.0985 5.12093C63.085 2.30233 63.0444 2.86102e-06 62.9767 2.86102e-06C62.9225 2.86102e-06 62.4487 0.223258 61.9343 0.488375Z" fill="#3B2F18"/>
<path d="M40.4908 2.21861C40.1524 2.56744 40.2607 3.04186 40.6939 3.15349C40.8834 3.2093 41.1135 3.16744 41.2218 3.06977C41.5061 2.81861 41.4791 2.27442 41.1677 2.09303C40.8157 1.91163 40.7886 1.91163 40.4908 2.21861Z" fill="#3B2F18"/>
<path d="M90.8505 2.21861C90.5121 2.56744 90.6204 3.04186 91.0536 3.15349C91.2431 3.2093 91.4732 3.16744 91.5815 3.06977C91.8658 2.81861 91.8387 2.27442 91.5274 2.09303C91.1754 1.91163 91.1483 1.91163 90.8505 2.21861Z" fill="#3B2F18"/>
<path d="M85.9093 4.60466C85.8551 4.93954 85.7062 5.09303 85.2595 5.30233C84.8263 5.49768 84.7586 5.56745 84.9752 5.56745C85.4761 5.5814 85.5573 6 85.5573 8.42791V10.7302L85.9364 11.0233C86.4237 11.4279 87.5744 11.3581 88.319 10.8977C88.9282 10.507 88.874 10.3535 88.2513 10.6744C87.6827 10.9814 86.8028 10.8837 86.4779 10.4651C86.2613 10.2 86.2342 9.85117 86.2342 7.91163V5.67907L87.3172 5.77675C88.3596 5.86047 88.4002 5.86047 88.4002 5.56745C88.4002 5.27442 88.3596 5.27442 87.3172 5.33024L86.2342 5.4V4.78605C86.2342 4.10233 86.0311 3.97675 85.9093 4.60466Z" fill="#3B2F18"/>
<path d="M34.981 5.31628C34.1011 5.66512 33.5461 6.18139 33.6002 6.6C33.6273 6.82326 33.7356 6.90698 33.9657 6.90698C34.2365 6.90698 34.3312 6.79535 34.4937 6.30698C34.6426 5.84651 34.805 5.65116 35.157 5.46977C35.5767 5.26046 35.6579 5.26046 35.9828 5.45581C36.4431 5.70698 36.7138 6.53023 36.6597 7.43721L36.6191 8.12093L35.4007 8.59535C33.6273 9.27907 33.0452 10.0744 33.695 10.8977C34.0876 11.4 34.9404 11.3581 35.8474 10.7721C36.6732 10.2558 36.6868 10.2419 36.6868 10.5767C36.6868 10.7163 36.768 10.9395 36.8627 11.0791C37.0252 11.3163 37.0929 11.3023 37.9728 10.8977C38.9475 10.4372 39.11 10.2279 38.2707 10.493C37.4313 10.7581 37.3636 10.6047 37.3636 8.27442C37.3636 6.13953 37.2147 5.45581 36.7138 5.17674C36.3077 4.95349 35.7662 4.99535 34.981 5.31628ZM36.6868 9.2093V10.0326L36.1046 10.3953C35.3872 10.814 34.8863 10.8419 34.5208 10.4651C33.9386 9.86512 34.3042 9.23721 35.5361 8.73488C36.7003 8.24651 36.6868 8.24651 36.6868 9.2093Z" fill="#3B2F18"/>
<path d="M40.2336 5.53954C39.2183 6.02791 39.0152 6.23721 39.7598 6.01396C40.5585 5.77675 40.6126 5.90233 40.6126 8.34419C40.6126 9.54419 40.5585 10.6047 40.5043 10.6884C40.4502 10.7721 40.2336 10.9116 40.0035 10.9954C39.665 11.1209 39.841 11.1349 41.0188 11.1349C42.3048 11.1349 42.3996 11.1209 41.9799 10.9674C41.7092 10.8698 41.4655 10.6605 41.3978 10.4512C41.3301 10.2698 41.2895 9 41.3166 7.64652C41.3301 6.29303 41.3301 5.16279 41.2895 5.12093C41.2489 5.09303 40.7751 5.27442 40.2336 5.53954Z" fill="#3B2F18"/>
<path d="M50.4951 5.51163L49.6151 5.98605L50.2649 5.90233C50.7523 5.84651 50.9553 5.87442 51.0501 6.01396C51.1855 6.25117 51.2125 10.4651 51.0636 10.6884C51.0095 10.7721 50.7929 10.9116 50.5627 10.9954C50.2378 11.107 50.4815 11.1349 51.8488 11.1349C53.4327 11.1349 53.5004 11.1209 52.8641 10.9814C51.9436 10.7581 51.8488 10.5209 51.8488 8.35814V6.58605L52.3903 6.08372C53.013 5.51163 53.0807 5.49768 53.6087 5.80465C54.0419 6.08372 54.4209 5.98605 54.4209 5.60931C54.4209 5.27442 53.7441 4.95349 53.3244 5.09303C53.162 5.14884 52.7558 5.44186 52.4445 5.74884L51.8488 6.32093V5.94419C51.8488 5.53954 51.6322 5.02326 51.4698 5.02326C51.4156 5.03721 50.9824 5.24651 50.4951 5.51163Z" fill="#3B2F18"/>
<path d="M57.4804 5.21861C56.7494 5.49768 56.3298 5.84651 55.8424 6.54419C55.504 7.04651 55.4363 7.29768 55.3957 8.16279C55.3009 10.0605 56.1402 11.1767 57.7512 11.2744C58.4822 11.3302 58.7259 11.2744 59.3622 10.9535C59.7683 10.7581 60.1067 10.5209 60.1067 10.4512C60.1067 10.2837 60.1067 10.2837 59.4975 10.6047C59.1997 10.7581 58.8071 10.8837 58.6176 10.8837C57.1285 10.8837 56.1808 9.72558 56.1808 7.92558V7.26977L58.1167 7.22791L60.039 7.18605L60.0797 6.80931C60.1338 6.33489 59.7954 5.56744 59.4298 5.33024C58.9966 5.05117 58.0626 4.99535 57.4804 5.21861ZM58.7259 5.62326C58.9425 5.80465 59.0914 6.09768 59.2132 6.58605L59.2945 6.97675H57.7512H56.1944L56.3298 6.5721C56.6682 5.56744 58.0084 5.03721 58.7259 5.62326Z" fill="#3B2F18"/>
<path d="M67.0109 5.31628C65.779 5.88837 65.251 6.73953 65.251 8.13488C65.251 8.80465 65.3322 9.19535 65.603 9.75349C66.1039 10.7721 66.7672 11.2047 67.945 11.2744C68.9603 11.3302 69.5289 11.1488 70.2463 10.5209C71.4241 9.50232 71.546 7.38139 70.5171 6.09767C69.6642 5.03721 68.2834 4.71628 67.0109 5.31628ZM69.2175 5.76279C70.5036 6.76744 70.7878 9.53023 69.7184 10.6326C69.3935 10.9535 69.2175 11.0233 68.6354 11.0233C68.2563 11.0233 67.769 10.9256 67.5524 10.814C65.9414 9.94884 65.5217 6.47442 66.9296 5.55349C67.5253 5.17674 68.5948 5.26046 69.2175 5.76279Z" fill="#3B2F18"/>
<path d="M74.5919 5.23256C73.2246 5.67907 72.4259 6.79535 72.4259 8.26047C72.4394 9.62791 73.0892 10.7581 74.091 11.1488C75.0251 11.5116 76.7715 11.1907 77.2859 10.5488C77.4483 10.3535 77.3806 10.3674 76.8798 10.6047C75.0116 11.4698 73.2382 10.1581 73.2382 7.89768C73.2517 6.30698 73.915 5.4 75.0793 5.4C75.5937 5.4 75.7561 5.46977 76.2164 5.93024C76.7444 6.46047 77.0828 6.51628 77.2453 6.06977C77.3671 5.73489 76.9474 5.34419 76.2841 5.17675C75.5531 4.9814 75.35 4.99535 74.5919 5.23256Z" fill="#3B2F18"/>
<path d="M80.6838 5.14884C80.1152 5.33024 79.2759 5.81861 79.0187 6.11163C78.6802 6.50233 78.775 6.89303 79.2082 6.94884C79.506 6.9907 79.5737 6.92093 79.7226 6.43256C80.0069 5.44186 80.9275 4.99535 81.496 5.5814C81.848 5.94419 81.9292 6.32093 81.8751 7.31163L81.8345 8.13489L80.5484 8.66512C79.8445 8.95814 79.154 9.33489 79.0322 9.50233C78.6667 9.96279 78.7208 10.6605 79.1405 11.0093C79.6414 11.414 79.9798 11.3721 81.0087 10.8279L81.9022 10.3395L81.9834 10.6744C82.1323 11.3163 82.3624 11.3581 83.2559 10.8837C84.1359 10.4233 84.2848 10.214 83.5267 10.493C83.1205 10.6326 83.0529 10.6186 82.8227 10.3256C82.6061 10.0605 82.579 9.75349 82.579 8.00931C82.579 6.85117 82.5114 5.87442 82.4301 5.67907C82.1729 5.10698 81.4825 4.89768 80.6838 5.14884ZM81.9022 9.25117V10.1302L81.293 10.4372C80.9545 10.6047 80.5484 10.7442 80.386 10.7442C79.682 10.7442 79.33 9.72558 79.8715 9.25117C80.1017 9.04186 81.5231 8.41396 81.8074 8.38605C81.8616 8.3721 81.9022 8.76279 81.9022 9.25117Z" fill="#3B2F18"/>
<path d="M90.5933 5.53954C89.578 6.02791 89.3749 6.23721 90.1195 6.01396C90.9182 5.77675 90.9724 5.90233 90.9724 8.34419C90.9724 9.54419 90.9182 10.6047 90.8641 10.6884C90.8099 10.7721 90.5933 10.9116 90.3632 10.9954C90.0247 11.1209 90.2007 11.1349 91.3785 11.1349C92.6645 11.1349 92.7593 11.1209 92.3396 10.9674C92.0689 10.8698 91.8252 10.6605 91.7575 10.4512C91.6898 10.2698 91.6492 9 91.6763 7.64652C91.6898 6.29303 91.6898 5.16279 91.6492 5.12093C91.6086 5.09303 91.1348 5.27442 90.5933 5.53954Z" fill="#3B2F18"/>
<path d="M95.9542 5.14884C95.2367 5.38605 94.6275 5.88837 94.2484 6.53023C93.5039 7.85581 93.8829 9.82326 95.0742 10.8C95.521 11.1767 95.724 11.2326 96.5633 11.2744C97.4297 11.3163 97.6193 11.2744 98.2826 10.9256C98.8241 10.6326 99.1355 10.3395 99.4198 9.85116C100.246 8.48372 99.853 6.44651 98.5804 5.52558C98.1202 5.1907 97.8494 5.09302 97.159 5.06512C96.6987 5.05116 96.1572 5.09302 95.9542 5.14884ZM97.3756 5.49767C97.9577 5.73488 98.6346 6.55814 98.8106 7.21395C99.0272 7.99535 99.0001 9.57209 98.7564 10.0465C98.418 10.7163 97.9171 11.0233 97.1455 11.0233C95.6563 11.0233 94.7222 9.69767 94.7358 7.57674C94.7493 5.76279 95.8865 4.85581 97.3756 5.49767Z" fill="#3B2F18"/>
<path d="M101.464 5.49768L100.516 5.95814L101.261 5.94419L102.005 5.93024V8.35814V10.7861L101.532 10.9674C101.098 11.1209 101.18 11.1349 102.479 11.1349C103.779 11.1349 103.86 11.1209 103.427 10.9674L102.953 10.7861L102.912 8.60931L102.872 6.43256L103.373 6.05582C103.738 5.76279 104.05 5.65117 104.618 5.60931C105.309 5.55349 105.417 5.59535 105.728 5.93024C106.053 6.27907 106.067 6.3907 106.107 8.26047C106.134 9.33489 106.121 10.3535 106.08 10.5349C106.026 10.7302 105.837 10.8977 105.566 10.9814C105.187 11.107 105.349 11.1349 106.541 11.1349C107.827 11.1349 107.921 11.1209 107.502 10.9674C107.244 10.8698 106.987 10.6744 106.933 10.5209C106.879 10.3814 106.825 9.29303 106.825 8.10698L106.811 5.9721L106.351 5.49768C105.958 5.09303 105.796 5.02326 105.282 5.02326C104.523 5.02326 104.077 5.1907 103.427 5.72093C102.912 6.13954 102.75 6.13954 102.75 5.72093C102.75 5.59535 102.669 5.38605 102.588 5.26047C102.425 5.03721 102.344 5.05117 101.464 5.49768Z" fill="#3B2F18"/>
<path d="M113.851 5.23256C112.497 5.67907 111.685 6.85116 111.685 8.31628C111.698 9.62791 112.362 10.7721 113.35 11.1488C114.311 11.5256 116.044 11.1907 116.558 10.5209C116.761 10.2698 116.748 10.2698 116.382 10.507C116.166 10.6465 115.665 10.8 115.272 10.8419C113.715 11.0093 112.659 9.94884 112.524 8.10698C112.483 7.35349 112.524 7.03256 112.741 6.53023C113.079 5.73489 113.526 5.41395 114.325 5.41395C114.866 5.4 115.015 5.46977 115.489 5.94419C115.922 6.3907 116.071 6.46047 116.26 6.33489C116.382 6.25116 116.491 6.06977 116.491 5.93023C116.491 5.26047 114.974 4.85582 113.851 5.23256Z" fill="#3B2F18"/>
<path d="M119.78 5.14884C119.063 5.38605 118.454 5.88837 118.075 6.53023C117.33 7.85581 117.709 9.82326 118.9 10.8C119.347 11.1767 119.55 11.2326 120.389 11.2744C121.256 11.3163 121.445 11.2744 122.109 10.9256C122.65 10.6326 122.962 10.3395 123.246 9.85116C124.072 8.48372 123.679 6.44651 122.407 5.52558C121.946 5.1907 121.676 5.09302 120.985 5.06512C120.525 5.05116 119.983 5.09302 119.78 5.14884ZM121.202 5.49767C121.784 5.73488 122.461 6.55814 122.637 7.21395C122.853 7.99535 122.826 9.57209 122.583 10.0465C122.244 10.7163 121.743 11.0233 120.972 11.0233C119.482 11.0233 118.548 9.69767 118.562 7.57674C118.575 5.76279 119.713 4.85581 121.202 5.49767Z" fill="#3B2F18"/>
<path d="M125.222 5.51163L124.342 5.98605L124.992 5.90233C125.48 5.84651 125.683 5.87442 125.777 6.01396C125.913 6.25117 125.94 10.4651 125.791 10.6884C125.737 10.7721 125.52 10.9116 125.29 10.9954C124.952 11.1209 125.128 11.1349 126.305 11.1349C127.591 11.1349 127.686 11.1209 127.267 10.9674C126.996 10.8698 126.752 10.6605 126.684 10.4651C126.617 10.2837 126.59 9.32093 126.603 8.33024L126.644 6.51628L127.145 6.09768C127.497 5.80465 127.835 5.66512 128.295 5.62326C129.108 5.53954 129.514 5.83256 129.69 6.62791C129.839 7.29768 129.852 10.1442 129.703 10.5209C129.649 10.6744 129.392 10.8698 129.135 10.9674C128.715 11.1209 128.81 11.1349 130.096 11.1349C131.274 11.1349 131.45 11.1209 131.111 10.9954C130.895 10.9116 130.664 10.7721 130.61 10.6884C130.556 10.6047 130.502 9.65582 130.502 8.56745C130.502 6.61396 130.502 6.61396 130.881 6.25117C131.68 5.48372 132.533 5.35814 133.169 5.91628C133.548 6.25117 133.548 6.26512 133.589 8.23256C133.616 9.32093 133.602 10.3535 133.561 10.5349C133.507 10.7302 133.318 10.8977 133.047 10.9814C132.668 11.107 132.83 11.1349 134.022 11.1349C135.321 11.1349 135.403 11.1209 134.969 10.9674C134.672 10.8558 134.468 10.6744 134.414 10.4512C134.36 10.2698 134.32 9.19535 134.306 8.06512C134.292 6.08372 134.279 6.01396 133.941 5.59535C133.291 4.78605 132.032 4.88372 131.03 5.81861C130.732 6.09768 130.475 6.29303 130.461 6.26512C130.434 6.23721 130.353 6.02791 130.258 5.81861C130.082 5.4 129.392 5.02326 128.81 5.02326C128.309 5.02326 127.646 5.34419 127.077 5.86047L126.576 6.30698V5.93024C126.576 5.53954 126.359 5.02326 126.197 5.02326C126.143 5.03721 125.71 5.24651 125.222 5.51163Z" fill="#3B2F18"/>
<path d="M0 5.27442C0 5.33024 0.135375 5.44187 0.297826 5.51163C0.527964 5.60931 0.934091 6.3907 1.81403 8.41396C2.47737 9.92094 3.08656 11.1628 3.18132 11.1628C3.26255 11.1628 3.66868 10.3395 4.06126 9.34884C4.45385 8.34419 4.81937 7.53489 4.87352 7.53489C4.91413 7.53489 5.30672 8.34419 5.73992 9.34884C6.17312 10.3535 6.59279 11.1628 6.68755 11.1628C6.78231 11.1628 7.29674 10.0326 7.83824 8.65117C8.84002 6.12559 9.20553 5.44187 9.54397 5.44187C9.65227 5.44187 9.77411 5.3721 9.81472 5.30233C9.86887 5.21861 9.43567 5.1628 8.60988 5.1628C7.83824 5.1628 7.31028 5.21861 7.31028 5.30233C7.31028 5.3721 7.48626 5.44187 7.70287 5.44187C8.28498 5.44187 8.52866 5.5814 8.52866 5.90233C8.52866 6.33489 7.01245 10.0744 6.89061 9.94884C6.64694 9.69768 5.00889 5.7907 5.06304 5.62326C5.10366 5.52559 5.32026 5.44187 5.5504 5.44187C5.767 5.44187 5.95652 5.3721 5.95652 5.30233C5.95652 5.21861 5.45563 5.1628 4.73814 5.1628C3.60099 5.1628 3.15425 5.31628 3.79051 5.48373C3.95296 5.52559 4.19664 5.84652 4.38617 6.27907L4.71107 7.00466L4.19664 8.30233C3.41146 10.3116 3.46561 10.2558 3.00534 9.20931C2.78874 8.70698 2.35553 7.71628 2.04417 7.00466C1.73281 6.30698 1.51621 5.65117 1.55682 5.5814C1.59743 5.49768 1.81403 5.44187 2.04417 5.44187C2.26077 5.44187 2.43676 5.3721 2.43676 5.30233C2.43676 5.21861 1.93587 5.1628 1.21838 5.1628C0.55504 5.1628 0 5.20466 0 5.27442Z" fill="#3B2F18"/>
<path d="M10.1532 5.27442C10.1532 5.33024 10.2885 5.44187 10.451 5.51163C10.6811 5.60931 11.0873 6.3907 11.9672 8.41396C12.6305 9.92094 13.2397 11.1628 13.3345 11.1628C13.4157 11.1628 13.8218 10.3395 14.2144 9.34884C14.607 8.34419 14.9725 7.53489 15.0267 7.53489C15.0673 7.53489 15.4599 8.34419 15.8931 9.34884C16.3263 10.3535 16.7459 11.1628 16.8407 11.1628C16.9355 11.1628 17.4499 10.0326 17.9914 8.65117C18.9932 6.12559 19.3587 5.44187 19.6971 5.44187C19.8054 5.44187 19.9273 5.3721 19.9679 5.30233C20.022 5.21861 19.5888 5.1628 18.763 5.1628C17.9914 5.1628 17.4634 5.21861 17.4634 5.30233C17.4634 5.3721 17.6394 5.44187 17.856 5.44187C18.4381 5.44187 18.6818 5.5814 18.6818 5.90233C18.6818 6.33489 17.1656 10.0744 17.0438 9.94884C16.8001 9.69768 15.1621 5.7907 15.2162 5.62326C15.2568 5.52559 15.4734 5.44187 15.7036 5.44187C15.9202 5.44187 16.1097 5.3721 16.1097 5.30233C16.1097 5.21861 15.6088 5.1628 14.8913 5.1628C13.7541 5.1628 13.3074 5.31628 13.9437 5.48373C14.1061 5.52559 14.3498 5.84652 14.5393 6.27907L14.8642 7.00466L14.3498 8.30233C13.5646 10.3116 13.6188 10.2558 13.1585 9.20931C12.9419 8.70698 12.5087 7.71628 12.1973 7.00466C11.886 6.30698 11.6694 5.65117 11.71 5.5814C11.7506 5.49768 11.9672 5.44187 12.1973 5.44187C12.4139 5.44187 12.5899 5.3721 12.5899 5.30233C12.5899 5.21861 12.089 5.1628 11.3715 5.1628C10.7082 5.1628 10.1532 5.20466 10.1532 5.27442Z" fill="#3B2F18"/>
<path d="M20.3063 5.30233C20.3063 5.3721 20.3875 5.44187 20.4823 5.44187C20.8207 5.44187 21.0644 5.88838 22.2151 8.53954C22.9461 10.214 23.42 11.1488 23.5283 11.1209C23.6366 11.107 24.0156 10.3395 24.3811 9.41861C24.7602 8.49768 25.1122 7.68838 25.1663 7.63256C25.2205 7.57675 25.6401 8.34419 26.0733 9.33489C26.5065 10.3395 26.9397 11.1628 27.0345 11.1628C27.1157 11.1628 27.3865 10.6744 27.6166 10.0884C29.39 5.66512 29.4983 5.44187 29.918 5.44187C30.0669 5.44187 30.1887 5.3721 30.1887 5.30233C30.1887 5.21861 29.6608 5.1628 28.8891 5.1628C28.0633 5.1628 27.6301 5.21861 27.6843 5.30233C27.7249 5.38605 27.9415 5.44187 28.1581 5.44187C28.3747 5.44187 28.6455 5.53954 28.7538 5.65117C28.9433 5.84652 28.9297 5.94419 28.6725 6.66977C28.0769 8.31628 27.3865 9.92094 27.2782 9.92094C27.1157 9.92094 25.2881 5.73489 25.3829 5.5814C25.4235 5.49768 25.6401 5.44187 25.8703 5.44187C26.0869 5.44187 26.2628 5.3721 26.2628 5.30233C26.2628 5.21861 25.762 5.1628 25.0445 5.1628C23.9208 5.1628 23.4606 5.31628 24.0833 5.48373C24.2322 5.51163 24.503 5.87442 24.706 6.27907L25.0715 7.00466L24.503 8.42791C24.1916 9.19535 23.8938 9.87908 23.8396 9.94884C23.7042 10.0884 21.9038 6.02791 21.9579 5.73489C21.985 5.60931 22.161 5.49768 22.3776 5.46977C22.5806 5.44187 22.7431 5.35814 22.7431 5.28838C22.7431 5.21861 22.2016 5.1628 21.5247 5.1628C20.8072 5.1628 20.3063 5.21861 20.3063 5.30233Z" fill="#3B2F18"/>
<path d="M43.1848 5.30232C43.1848 5.37209 43.3202 5.44186 43.4826 5.44186C43.8481 5.44186 44.7145 6.37674 45.3779 7.49302L45.8788 8.34418L45.0936 9.44651C44.4844 10.3116 44.173 10.6186 43.7398 10.786C43.442 10.9116 43.1848 11.0512 43.1848 11.093C43.1848 11.1349 43.7534 11.1628 44.4438 11.1488C45.6215 11.1488 45.6622 11.1349 45.2154 10.9674C44.8634 10.8279 44.7551 10.7163 44.7822 10.5209C44.8364 10.2419 45.8788 8.65116 46.0141 8.65116C46.1089 8.65116 47.3814 10.6465 47.3814 10.786C47.3814 10.8419 47.246 10.9535 47.0836 11.0233C46.867 11.107 47.1377 11.1488 48.0312 11.1488C48.8435 11.1628 49.2631 11.107 49.209 11.0233C49.1684 10.9535 49.0465 10.8837 48.9518 10.8837C48.5998 10.8837 48.0312 10.2837 47.246 9.08372L46.4609 7.86977L47.1107 6.96279C47.8146 5.95814 48.3697 5.44186 48.7487 5.44186C48.8841 5.44186 49.033 5.37209 49.0736 5.30232C49.1278 5.2186 48.6946 5.16279 47.8688 5.16279C47.1513 5.16279 46.5692 5.2186 46.5692 5.28837C46.5692 5.37209 46.7587 5.44186 47.0024 5.46977C47.2325 5.49767 47.4491 5.58139 47.4762 5.66511C47.5033 5.73488 47.2596 6.22325 46.9347 6.75349L46.3526 7.68837L45.7163 6.71163C45.0124 5.6093 44.9582 5.44186 45.3508 5.44186C45.4997 5.44186 45.6215 5.37209 45.6215 5.30232C45.6215 5.2186 45.1207 5.16279 44.4032 5.16279C43.6857 5.16279 43.1848 5.2186 43.1848 5.30232Z" fill="#3B2F18"/>
<path d="M30.6219 10.3535C30.2564 10.7302 30.5407 11.3023 31.0958 11.3023C31.4883 11.3023 31.7456 10.8419 31.5425 10.4651C31.38 10.1581 30.8792 10.0884 30.6219 10.3535Z" fill="#3B2F18"/>
<path d="M109.167 10.3814C109.018 10.8 109.18 11.2326 109.492 11.2744C109.898 11.3302 110.196 11.0791 110.196 10.6744C110.196 10.2 109.329 9.96279 109.167 10.3814Z" fill="#3B2F18"/>
</svg>
